<svg width="2624" height="28" viewBox="0 0 2624 28" fill="none" xmlns="http://www.w3.org/2000/svg">
<g clip-path="url(#clip0_90_55)">
<path d="M14.2612 0.0946621C17.3592 0.211008 20.3122 1.43867 22.5821 3.55387C25.1726 6.02394 27.6495 8.62459 30.2622 11.0808C34.5891 15.1485 38.547 15.2263 42.8933 11.2641C45.4589 8.92467 47.797 6.33235 50.3515 3.9762C56.0791 -1.30291 64.2196 -1.19177 69.3814 4.17069C74.7483 9.72765 74.6068 17.3601 68.8904 23.031C58.7038 33.1336 48.4757 43.1954 38.2059 53.2164C37.4625 53.9472 36.8856 55.3808 35.399 53.8916C25.7301 44.203 15.9836 34.5756 6.30648 24.9093C3.53286 22.153 0.70377 19.5079 0.237802 15.2013C-0.62202 7.26592 5.7157 0.0113078 14.2612 0.0946621Z" fill="#DD4C84"/>
<path d="M332.993 15.4927C333.201 8.23808 335.664 3.95644 340.673 1.50027C345.682 -0.955909 350.658 -0.375207 354.993 3.2257C357.742 5.51239 360.205 8.14361 362.76 10.6498C367.533 15.3121 371.438 15.3732 376.325 10.7998C379.099 8.20196 381.612 5.30123 384.557 2.9284C389.328 -0.914232 395.821 -0.847548 400.594 2.70613C405.31 6.21535 407.315 12.4892 405.457 17.7988C404.791 19.7049 403.582 21.2136 402.178 22.6C391.823 32.836 381.462 43.07 371.094 53.3022C370.304 54.0802 369.707 55.2777 368.271 53.8329C358.216 43.7609 348.068 33.7779 337.999 23.7198C335.29 21.0052 332.785 18.1045 332.993 15.4927Z" fill="#DD4C84"/>
<path d="M142.876 54.8335C138.898 55.0002 135.75 53.2276 133.007 50.5574C130.672 48.2847 128.445 45.8896 126.043 43.689C121.907 39.8964 117.722 39.9881 113.636 43.878C111.04 46.3508 108.644 49.0654 105.934 51.3799C97.4549 58.59 85.4479 54.1917 83.5036 43.2362C82.8546 39.5852 83.7116 36.2566 86.2356 33.567C96.5868 22.5532 107.681 12.295 118.432 1.67843C119.477 0.647619 120.171 0.0613594 121.558 1.45893C131.82 11.7921 142.185 22.0197 152.489 32.3001C156.649 36.4511 157.645 41.469 155.457 46.6176C153.291 51.7244 148.476 54.8613 142.876 54.8335Z" fill="#F27144"/>
<path d="M475.661 54.8334C471.953 54.989 468.888 53.5248 466.283 51.0102C463.937 48.7458 461.721 46.3452 459.349 44.1196C454.698 39.7657 450.501 39.8435 445.956 44.2835C443.623 46.5619 441.421 48.9819 439.021 51.1714C434.403 55.3641 428.157 56.0865 423.018 53.1886C418.092 50.4101 415.429 44.7698 416.311 39.0906C416.634 36.9213 417.634 34.9101 419.168 33.3447C429.691 22.5086 440.508 11.9504 451.431 1.5283C452.279 0.716985 452.884 0.0862702 454.066 1.26712C464.517 11.7114 475.054 22.0668 485.499 32.5167C489.568 36.5844 490.411 41.4606 488.212 46.5841C485.962 51.7826 481.294 54.8556 475.661 54.8334Z" fill="#F27144"/>
<path d="M655.554 40.1989C655.432 46.8006 653.003 50.9711 648.124 53.4162C643.131 55.9168 638.139 55.4778 633.768 51.9408C630.825 49.5569 628.273 46.6923 625.533 44.0555C621.27 39.9517 617.281 39.7877 612.932 43.7026C610.195 46.1699 607.718 48.9317 604.969 51.3823C599.366 56.3836 591.265 56.0113 586.195 50.6683C581.124 45.3252 581.058 37.7483 586.491 32.2858C596.754 21.961 607.21 11.8168 617.578 1.5892C618.479 0.697309 619.159 -0.0612152 620.471 1.25856C630.515 11.3426 640.593 21.3877 650.703 31.3939C653.469 34.1363 655.885 37.037 655.554 40.1989Z" fill="#1CBED6"/>
<path d="M309.702 54.8278C305.764 54.9056 302.824 53.6191 300.344 51.3352C297.865 49.0513 295.518 46.634 293.111 44.2807C288.529 39.8018 284.485 39.699 279.739 44.0834C277.268 46.3673 275.024 48.9013 272.547 51.1769C266.911 56.3448 258.626 56.0892 253.512 50.6878C248.317 45.2003 248.455 37.6012 254.033 32.0526C264.204 21.9389 274.461 11.9086 284.695 1.85885C285.553 1.0253 286.193 -0.336153 287.783 1.26147C296.974 10.5027 306.263 19.6522 315.519 28.8407C316.75 30.066 317.901 31.3746 319.141 32.5916C323.301 36.676 323.912 41.4577 321.787 46.6646C319.662 51.8715 314.9 54.8639 309.702 54.8278Z" fill="#1CBED6"/>
<path d="M239.727 15.2927C239.782 16.9959 238.653 19.641 236.54 21.8472C226.247 32.5999 215.386 42.7774 204.779 53.2162C203.34 54.6332 202.791 54.5443 201.323 53.0467C194.176 45.7588 186.787 38.707 179.509 31.5496C176.566 28.6572 173.67 25.7148 170.772 22.7752C165.361 17.2905 165.183 9.91359 170.312 4.41498C172.695 1.82205 176.003 0.275494 179.517 0.111109C183.032 -0.0532764 186.469 1.17778 189.083 3.53698C191.605 5.75977 193.862 8.28263 196.281 10.6277C201.176 15.3761 205.226 15.3733 210.11 10.6277C212.606 8.20761 214.947 5.61251 217.582 3.35638C221.856 -0.305652 226.805 -1.01694 231.866 1.38366C237.006 3.83706 239.68 8.09925 239.727 15.2927Z" fill="#FFC20A"/>
<path d="M499.43 14.4398C499.455 7.87979 502.14 3.76764 507.196 1.40316C512.405 -1.03635 517.408 -0.186132 521.741 3.56481C524.281 5.76259 526.52 8.30768 528.952 10.6472C533.878 15.4067 537.93 15.3706 542.787 10.6249C545.35 8.1243 547.779 5.4514 550.52 3.15638C552.657 1.3554 555.312 0.284547 558.098 0.0996489C560.885 -0.0852493 563.658 0.625454 566.013 2.12834C568.373 3.60501 570.223 5.77166 571.315 8.33559C572.406 10.8995 572.685 13.7372 572.115 16.4653C571.635 18.7798 570.451 20.6552 568.77 22.3001C558.785 32.1359 548.8 41.9495 538.912 51.8881C536.693 54.1276 535.567 54.7944 532.843 51.952C523.311 41.9884 513.303 32.4777 503.443 22.8169C500.83 20.2718 499.13 17.3794 499.43 14.4398Z" fill="#FFC20A"/>
</g>
<g clip-path="url(#clip1_90_55)">
<path d="M670.261 0.0946621C673.359 0.211008 676.312 1.43867 678.582 3.55387C681.173 6.02394 683.649 8.62459 686.262 11.0808C690.589 15.1485 694.547 15.2263 698.893 11.2641C701.459 8.92467 703.797 6.33235 706.351 3.9762C712.079 -1.30291 720.22 -1.19177 725.381 4.17069C730.748 9.72765 730.607 17.3601 724.89 23.031C714.704 33.1336 704.476 43.1954 694.206 53.2164C693.462 53.9472 692.886 55.3808 691.399 53.8916C681.73 44.203 671.984 34.5756 662.306 24.9093C659.533 22.153 656.704 19.5079 656.238 15.2013C655.378 7.26592 661.716 0.0113078 670.261 0.0946621Z" fill="#DD4C84"/>
<path d="M988.993 15.4927C989.201 8.23808 991.664 3.95644 996.673 1.50027C1001.68 -0.955909 1006.66 -0.375207 1010.99 3.2257C1013.74 5.51239 1016.21 8.14361 1018.76 10.6498C1023.53 15.3121 1027.44 15.3732 1032.33 10.7998C1035.1 8.20196 1037.61 5.30123 1040.56 2.9284C1045.33 -0.914232 1051.82 -0.847548 1056.59 2.70613C1061.31 6.21535 1063.31 12.4892 1061.46 17.7988C1060.79 19.7049 1059.58 21.2136 1058.18 22.6C1047.82 32.836 1037.46 43.07 1027.09 53.3022C1026.3 54.0802 1025.71 55.2777 1024.27 53.8329C1014.22 43.7609 1004.07 33.7779 993.999 23.7198C991.29 21.0052 988.785 18.1045 988.993 15.4927Z" fill="#DD4C84"/>
<path d="M798.876 54.8335C794.898 55.0002 791.75 53.2276 789.007 50.5574C786.672 48.2847 784.445 45.8896 782.043 43.689C777.907 39.8964 773.722 39.9881 769.636 43.878C767.04 46.3508 764.644 49.0654 761.934 51.3799C753.455 58.59 741.448 54.1917 739.504 43.2362C738.855 39.5852 739.712 36.2566 742.236 33.567C752.587 22.5532 763.681 12.295 774.432 1.67843C775.478 0.647619 776.171 0.0613594 777.558 1.45893C787.82 11.7921 798.185 22.0197 808.489 32.3001C812.65 36.4511 813.645 41.469 811.457 46.6176C809.291 51.7244 804.476 54.8613 798.876 54.8335Z" fill="#F27144"/>
<path d="M1131.66 54.8334C1127.95 54.989 1124.89 53.5248 1122.28 51.0102C1119.94 48.7458 1117.72 46.3452 1115.35 44.1196C1110.7 39.7657 1106.5 39.8435 1101.96 44.2835C1099.62 46.5619 1097.42 48.9819 1095.02 51.1714C1090.4 55.3641 1084.16 56.0865 1079.02 53.1886C1074.09 50.4101 1071.43 44.7698 1072.31 39.0906C1072.63 36.9213 1073.63 34.9101 1075.17 33.3447C1085.69 22.5086 1096.51 11.9504 1107.43 1.5283C1108.28 0.716985 1108.88 0.0862702 1110.07 1.26712C1120.52 11.7114 1131.05 22.0668 1141.5 32.5167C1145.57 36.5844 1146.41 41.4606 1144.21 46.5841C1141.96 51.7826 1137.29 54.8556 1131.66 54.8334Z" fill="#F27144"/>
<path d="M1311.55 40.1989C1311.43 46.8006 1309 50.9711 1304.12 53.4162C1299.13 55.9168 1294.14 55.4778 1289.77 51.9408C1286.82 49.5569 1284.27 46.6923 1281.53 44.0555C1277.27 39.9517 1273.28 39.7877 1268.93 43.7026C1266.19 46.1699 1263.72 48.9317 1260.97 51.3823C1255.37 56.3836 1247.26 56.0113 1242.19 50.6683C1237.12 45.3252 1237.06 37.7483 1242.49 32.2858C1252.75 21.961 1263.21 11.8168 1273.58 1.5892C1274.48 0.697309 1275.16 -0.0612152 1276.47 1.25856C1286.52 11.3426 1296.59 21.3877 1306.7 31.3939C1309.47 34.1363 1311.88 37.037 1311.55 40.1989Z" fill="#1CBED6"/>
<path d="M965.702 54.8278C961.764 54.9056 958.824 53.6191 956.344 51.3352C953.865 49.0513 951.518 46.634 949.111 44.2807C944.529 39.8018 940.485 39.699 935.739 44.0834C933.268 46.3673 931.024 48.9013 928.547 51.1769C922.911 56.3448 914.626 56.0892 909.512 50.6878C904.317 45.2003 904.455 37.6012 910.033 32.0526C920.204 21.9389 930.461 11.9086 940.695 1.85885C941.553 1.0253 942.193 -0.336153 943.783 1.26147C952.974 10.5027 962.263 19.6522 971.519 28.8407C972.75 30.066 973.901 31.3746 975.141 32.5916C979.301 36.676 979.912 41.4577 977.787 46.6646C975.662 51.8715 970.9 54.8639 965.702 54.8278Z" fill="#1CBED6"/>
<path d="M895.727 15.2927C895.782 16.9959 894.653 19.641 892.54 21.8472C882.247 32.5999 871.386 42.7774 860.779 53.2162C859.34 54.6332 858.791 54.5443 857.323 53.0467C850.176 45.7588 842.787 38.707 835.509 31.5496C832.566 28.6572 829.67 25.7148 826.772 22.7752C821.361 17.2905 821.183 9.91359 826.312 4.41498C828.695 1.82205 832.003 0.275494 835.517 0.111109C839.032 -0.0532764 842.469 1.17778 845.083 3.53698C847.605 5.75977 849.862 8.28263 852.281 10.6277C857.176 15.3761 861.226 15.3733 866.11 10.6277C868.606 8.20761 870.947 5.61251 873.582 3.35638C877.856 -0.305652 882.805 -1.01694 887.866 1.38366C893.006 3.83706 895.68 8.09925 895.727 15.2927Z" fill="#FFC20A"/>
<path d="M1155.43 14.4398C1155.45 7.87979 1158.14 3.76764 1163.2 1.40316C1168.4 -1.03635 1173.41 -0.186132 1177.74 3.56481C1180.28 5.76259 1182.52 8.30768 1184.95 10.6472C1189.88 15.4067 1193.93 15.3706 1198.79 10.6249C1201.35 8.1243 1203.78 5.4514 1206.52 3.15638C1208.66 1.3554 1211.31 0.284547 1214.1 0.0996489C1216.88 -0.0852493 1219.66 0.625454 1222.01 2.12834C1224.37 3.60501 1226.22 5.77166 1227.31 8.33559C1228.41 10.8995 1228.69 13.7372 1228.12 16.4653C1227.64 18.7798 1226.45 20.6552 1224.77 22.3001C1214.79 32.1359 1204.8 41.9495 1194.91 51.8881C1192.69 54.1276 1191.57 54.7944 1188.84 51.952C1179.31 41.9884 1169.3 32.4777 1159.44 22.8169C1156.83 20.2718 1155.13 17.3794 1155.43 14.4398Z" fill="#FFC20A"/>
</g>
<g clip-path="url(#clip2_90_55)">
<path d="M1326.26 0.0946621C1329.36 0.211008 1332.31 1.43867 1334.58 3.55387C1337.17 6.02394 1339.65 8.62459 1342.26 11.0808C1346.59 15.1485 1350.55 15.2263 1354.89 11.2641C1357.46 8.92467 1359.8 6.33235 1362.35 3.9762C1368.08 -1.30291 1376.22 -1.19177 1381.38 4.17069C1386.75 9.72765 1386.61 17.3601 1380.89 23.031C1370.7 33.1336 1360.48 43.1954 1350.21 53.2164C1349.46 53.9472 1348.89 55.3808 1347.4 53.8916C1337.73 44.203 1327.98 34.5756 1318.31 24.9093C1315.53 22.153 1312.7 19.5079 1312.24 15.2013C1311.38 7.26592 1317.72 0.0113078 1326.26 0.0946621Z" fill="#DD4C84"/>
<path d="M1644.99 15.4927C1645.2 8.23808 1647.66 3.95644 1652.67 1.50027C1657.68 -0.955909 1662.66 -0.375207 1666.99 3.2257C1669.74 5.51239 1672.21 8.14361 1674.76 10.6498C1679.53 15.3121 1683.44 15.3732 1688.33 10.7998C1691.1 8.20196 1693.61 5.30123 1696.56 2.9284C1701.33 -0.914232 1707.82 -0.847548 1712.59 2.70613C1717.31 6.21535 1719.31 12.4892 1717.46 17.7988C1716.79 19.7049 1715.58 21.2136 1714.18 22.6C1703.82 32.836 1693.46 43.07 1683.09 53.3022C1682.3 54.0802 1681.71 55.2777 1680.27 53.8329C1670.22 43.7609 1660.07 33.7779 1650 23.7198C1647.29 21.0052 1644.79 18.1045 1644.99 15.4927Z" fill="#DD4C84"/>
<path d="M1454.88 54.8335C1450.9 55.0002 1447.75 53.2276 1445.01 50.5574C1442.67 48.2847 1440.44 45.8896 1438.04 43.689C1433.91 39.8964 1429.72 39.9881 1425.64 43.878C1423.04 46.3508 1420.64 49.0654 1417.93 51.3799C1409.45 58.59 1397.45 54.1917 1395.5 43.2362C1394.85 39.5852 1395.71 36.2566 1398.24 33.567C1408.59 22.5532 1419.68 12.295 1430.43 1.67843C1431.48 0.647619 1432.17 0.0613594 1433.56 1.45893C1443.82 11.7921 1454.19 22.0197 1464.49 32.3001C1468.65 36.4511 1469.65 41.469 1467.46 46.6176C1465.29 51.7244 1460.48 54.8613 1454.88 54.8335Z" fill="#F27144"/>
<path d="M1787.66 54.8334C1783.95 54.989 1780.89 53.5248 1778.28 51.0102C1775.94 48.7458 1773.72 46.3452 1771.35 44.1196C1766.7 39.7657 1762.5 39.8435 1757.96 44.2835C1755.62 46.5619 1753.42 48.9819 1751.02 51.1714C1746.4 55.3641 1740.16 56.0865 1735.02 53.1886C1730.09 50.4101 1727.43 44.7698 1728.31 39.0906C1728.63 36.9213 1729.63 34.9101 1731.17 33.3447C1741.69 22.5086 1752.51 11.9504 1763.43 1.5283C1764.28 0.716985 1764.88 0.0862702 1766.07 1.26712C1776.52 11.7114 1787.05 22.0668 1797.5 32.5167C1801.57 36.5844 1802.41 41.4606 1800.21 46.5841C1797.96 51.7826 1793.29 54.8556 1787.66 54.8334Z" fill="#F27144"/>
<path d="M1967.55 40.1989C1967.43 46.8006 1965 50.9711 1960.12 53.4162C1955.13 55.9168 1950.14 55.4778 1945.77 51.9408C1942.82 49.5569 1940.27 46.6923 1937.53 44.0555C1933.27 39.9517 1929.28 39.7877 1924.93 43.7026C1922.19 46.1699 1919.72 48.9317 1916.97 51.3823C1911.37 56.3836 1903.26 56.0113 1898.19 50.6683C1893.12 45.3252 1893.06 37.7483 1898.49 32.2858C1908.75 21.961 1919.21 11.8168 1929.58 1.5892C1930.48 0.697309 1931.16 -0.0612152 1932.47 1.25856C1942.52 11.3426 1952.59 21.3877 1962.7 31.3939C1965.47 34.1363 1967.88 37.037 1967.55 40.1989Z" fill="#1CBED6"/>
<path d="M1621.7 54.8278C1617.76 54.9056 1614.82 53.6191 1612.34 51.3352C1609.86 49.0513 1607.52 46.634 1605.11 44.2807C1600.53 39.8018 1596.48 39.699 1591.74 44.0834C1589.27 46.3673 1587.02 48.9013 1584.55 51.1769C1578.91 56.3448 1570.63 56.0892 1565.51 50.6878C1560.32 45.2003 1560.46 37.6012 1566.03 32.0526C1576.2 21.9389 1586.46 11.9086 1596.7 1.85885C1597.55 1.0253 1598.19 -0.336153 1599.78 1.26147C1608.97 10.5027 1618.26 19.6522 1627.52 28.8407C1628.75 30.066 1629.9 31.3746 1631.14 32.5916C1635.3 36.676 1635.91 41.4577 1633.79 46.6646C1631.66 51.8715 1626.9 54.8639 1621.7 54.8278Z" fill="#1CBED6"/>
<path d="M1551.73 15.2927C1551.78 16.9959 1550.65 19.641 1548.54 21.8472C1538.25 32.5999 1527.39 42.7774 1516.78 53.2162C1515.34 54.6332 1514.79 54.5443 1513.32 53.0467C1506.18 45.7588 1498.79 38.707 1491.51 31.5496C1488.57 28.6572 1485.67 25.7148 1482.77 22.7752C1477.36 17.2905 1477.18 9.91359 1482.31 4.41498C1484.69 1.82205 1488 0.275494 1491.52 0.111109C1495.03 -0.0532764 1498.47 1.17778 1501.08 3.53698C1503.6 5.75977 1505.86 8.28263 1508.28 10.6277C1513.18 15.3761 1517.23 15.3733 1522.11 10.6277C1524.61 8.20761 1526.95 5.61251 1529.58 3.35638C1533.86 -0.305652 1538.8 -1.01694 1543.87 1.38366C1549.01 3.83706 1551.68 8.09925 1551.73 15.2927Z" fill="#FFC20A"/>
<path d="M1811.43 14.4398C1811.45 7.87979 1814.14 3.76764 1819.2 1.40316C1824.4 -1.03635 1829.41 -0.186132 1833.74 3.56481C1836.28 5.76259 1838.52 8.30768 1840.95 10.6472C1845.88 15.4067 1849.93 15.3706 1854.79 10.6249C1857.35 8.1243 1859.78 5.4514 1862.52 3.15638C1864.66 1.3554 1867.31 0.284547 1870.1 0.0996489C1872.88 -0.0852493 1875.66 0.625454 1878.01 2.12834C1880.37 3.60501 1882.22 5.77166 1883.31 8.33559C1884.41 10.8995 1884.69 13.7372 1884.12 16.4653C1883.64 18.7798 1882.45 20.6552 1880.77 22.3001C1870.79 32.1359 1860.8 41.9495 1850.91 51.8881C1848.69 54.1276 1847.57 54.7944 1844.84 51.952C1835.31 41.9884 1825.3 32.4777 1815.44 22.8169C1812.83 20.2718 1811.13 17.3794 1811.43 14.4398Z" fill="#FFC20A"/>
</g>
<g clip-path="url(#clip3_90_55)">
<path d="M1982.26 0.0946621C1985.36 0.211008 1988.31 1.43867 1990.58 3.55387C1993.17 6.02394 1995.65 8.62459 1998.26 11.0808C2002.59 15.1485 2006.55 15.2263 2010.89 11.2641C2013.46 8.92467 2015.8 6.33235 2018.35 3.9762C2024.08 -1.30291 2032.22 -1.19177 2037.38 4.17069C2042.75 9.72765 2042.61 17.3601 2036.89 23.031C2026.7 33.1336 2016.48 43.1954 2006.21 53.2164C2005.46 53.9472 2004.89 55.3808 2003.4 53.8916C1993.73 44.203 1983.98 34.5756 1974.31 24.9093C1971.53 22.153 1968.7 19.5079 1968.24 15.2013C1967.38 7.26592 1973.72 0.0113078 1982.26 0.0946621Z" fill="#DD4C84"/>
<path d="M2300.99 15.4927C2301.2 8.23808 2303.66 3.95644 2308.67 1.50027C2313.68 -0.955909 2318.66 -0.375207 2322.99 3.2257C2325.74 5.51239 2328.21 8.14361 2330.76 10.6498C2335.53 15.3121 2339.44 15.3732 2344.33 10.7998C2347.1 8.20196 2349.61 5.30123 2352.56 2.9284C2357.33 -0.914232 2363.82 -0.847548 2368.59 2.70613C2373.31 6.21535 2375.31 12.4892 2373.46 17.7988C2372.79 19.7049 2371.58 21.2136 2370.18 22.6C2359.82 32.836 2349.46 43.07 2339.09 53.3022C2338.3 54.0802 2337.71 55.2777 2336.27 53.8329C2326.22 43.7609 2316.07 33.7779 2306 23.7198C2303.29 21.0052 2300.79 18.1045 2300.99 15.4927Z" fill="#DD4C84"/>
<path d="M2110.88 54.8335C2106.9 55.0002 2103.75 53.2276 2101.01 50.5574C2098.67 48.2847 2096.44 45.8896 2094.04 43.689C2089.91 39.8964 2085.72 39.9881 2081.64 43.878C2079.04 46.3508 2076.64 49.0654 2073.93 51.3799C2065.45 58.59 2053.45 54.1917 2051.5 43.2362C2050.85 39.5852 2051.71 36.2566 2054.24 33.567C2064.59 22.5532 2075.68 12.295 2086.43 1.67843C2087.48 0.647619 2088.17 0.0613594 2089.56 1.45893C2099.82 11.7921 2110.19 22.0197 2120.49 32.3001C2124.65 36.4511 2125.65 41.469 2123.46 46.6176C2121.29 51.7244 2116.48 54.8613 2110.88 54.8335Z" fill="#F27144"/>
<path d="M2443.66 54.8334C2439.95 54.989 2436.89 53.5248 2434.28 51.0102C2431.94 48.7458 2429.72 46.3452 2427.35 44.1196C2422.7 39.7657 2418.5 39.8435 2413.96 44.2835C2411.62 46.5619 2409.42 48.9819 2407.02 51.1714C2402.4 55.3641 2396.16 56.0865 2391.02 53.1886C2386.09 50.4101 2383.43 44.7698 2384.31 39.0906C2384.63 36.9213 2385.63 34.9101 2387.17 33.3447C2397.69 22.5086 2408.51 11.9504 2419.43 1.5283C2420.28 0.716985 2420.88 0.0862702 2422.07 1.26712C2432.52 11.7114 2443.05 22.0668 2453.5 32.5167C2457.57 36.5844 2458.41 41.4606 2456.21 46.5841C2453.96 51.7826 2449.29 54.8556 2443.66 54.8334Z" fill="#F27144"/>
<path d="M2623.55 40.1989C2623.43 46.8006 2621 50.9711 2616.12 53.4162C2611.13 55.9168 2606.14 55.4778 2601.77 51.9408C2598.82 49.5569 2596.27 46.6923 2593.53 44.0555C2589.27 39.9517 2585.28 39.7877 2580.93 43.7026C2578.19 46.1699 2575.72 48.9317 2572.97 51.3823C2567.37 56.3836 2559.26 56.0113 2554.19 50.6683C2549.12 45.3252 2549.06 37.7483 2554.49 32.2858C2564.75 21.961 2575.21 11.8168 2585.58 1.5892C2586.48 0.697309 2587.16 -0.0612152 2588.47 1.25856C2598.52 11.3426 2608.59 21.3877 2618.7 31.3939C2621.47 34.1363 2623.88 37.037 2623.55 40.1989Z" fill="#1CBED6"/>
<path d="M2277.7 54.8278C2273.76 54.9056 2270.82 53.6191 2268.34 51.3352C2265.86 49.0513 2263.52 46.634 2261.11 44.2807C2256.53 39.8018 2252.48 39.699 2247.74 44.0834C2245.27 46.3673 2243.02 48.9013 2240.55 51.1769C2234.91 56.3448 2226.63 56.0892 2221.51 50.6878C2216.32 45.2003 2216.46 37.6012 2222.03 32.0526C2232.2 21.9389 2242.46 11.9086 2252.7 1.85885C2253.55 1.0253 2254.19 -0.336153 2255.78 1.26147C2264.97 10.5027 2274.26 19.6522 2283.52 28.8407C2284.75 30.066 2285.9 31.3746 2287.14 32.5916C2291.3 36.676 2291.91 41.4577 2289.79 46.6646C2287.66 51.8715 2282.9 54.8639 2277.7 54.8278Z" fill="#1CBED6"/>
<path d="M2207.73 15.2927C2207.78 16.9959 2206.65 19.641 2204.54 21.8472C2194.25 32.5999 2183.39 42.7774 2172.78 53.2162C2171.34 54.6332 2170.79 54.5443 2169.32 53.0467C2162.18 45.7588 2154.79 38.707 2147.51 31.5496C2144.57 28.6572 2141.67 25.7148 2138.77 22.7752C2133.36 17.2905 2133.18 9.91359 2138.31 4.41498C2140.69 1.82205 2144 0.275494 2147.52 0.111109C2151.03 -0.0532764 2154.47 1.17778 2157.08 3.53698C2159.6 5.75977 2161.86 8.28263 2164.28 10.6277C2169.18 15.3761 2173.23 15.3733 2178.11 10.6277C2180.61 8.20761 2182.95 5.61251 2185.58 3.35638C2189.86 -0.305652 2194.8 -1.01694 2199.87 1.38366C2205.01 3.83706 2207.68 8.09925 2207.73 15.2927Z" fill="#FFC20A"/>
<path d="M2467.43 14.4398C2467.45 7.87979 2470.14 3.76764 2475.2 1.40316C2480.4 -1.03635 2485.41 -0.186132 2489.74 3.56481C2492.28 5.76259 2494.52 8.30768 2496.95 10.6472C2501.88 15.4067 2505.93 15.3706 2510.79 10.6249C2513.35 8.1243 2515.78 5.4514 2518.52 3.15638C2520.66 1.3554 2523.31 0.284547 2526.1 0.0996489C2528.88 -0.0852493 2531.66 0.625454 2534.01 2.12834C2536.37 3.60501 2538.22 5.77166 2539.31 8.33559C2540.41 10.8995 2540.69 13.7372 2540.12 16.4653C2539.64 18.7798 2538.45 20.6552 2536.77 22.3001C2526.79 32.1359 2516.8 41.9495 2506.91 51.8881C2504.69 54.1276 2503.57 54.7944 2500.84 51.952C2491.31 41.9884 2481.3 32.4777 2471.44 22.8169C2468.83 20.2718 2467.13 17.3794 2467.43 14.4398Z" fill="#FFC20A"/>
</g>
<defs>
<clipPath id="clip0_90_55">
<rect width="656" height="28" fill="white"/>
</clipPath>
<clipPath id="clip1_90_55">
<rect width="656" height="28" fill="white" transform="translate(656)"/>
</clipPath>
<clipPath id="clip2_90_55">
<rect width="656" height="28" fill="white" transform="translate(1312)"/>
</clipPath>
<clipPath id="clip3_90_55">
<rect width="656" height="28" fill="white" transform="translate(1968)"/>
</clipPath>
</defs>
</svg>
